# xmcd
#
# Track frame offsets:
#	150
#	15900
#	29699
#	45254
#	55960
#	68860
#	81085
#	102609
#	119919
#	139890
#
# Disc length: 2143 seconds
#
# Revision: 0
# Processed by: cddbd v1.5.1PL2 Copyright (c) Steve Scherf et al.
# Submitted via: audiograbber 1.83.01
#
DISCID=8b085d0a
DTITLE=On A Shoestring - Rebirth
DYEAR=2006
DGENRE=Rock
TTITLE0=In Your Hands
TTITLE1=Stand Your Ground
TTITLE2=9 to 5
TTITLE3=Round And Round
TTITLE4=Barbarian
TTITLE5=Push Comes To Shove
TTITLE6=Your Days Are Numbered
TTITLE7=Can You Handle This?
TTITLE8=Just Play
TTITLE9=Once Again
EXTD=http://www.onashoestring.org.uk for lyrics and more information.
EXTT0=
EXTT1=
EXTT2=
EXTT3=
EXTT4=
EXTT5=
EXTT6=
EXTT7=
EXTT8=
EXTT9=
PLAYORDER=
